<?xml version="1.0" standalone="no"?>
<!DOCTYPE svg PUBLIC "-//W3C//DTD SVG 20010904//EN"
 "http://www.w3.org/TR/2001/REC-SVG-20010904/DTD/svg10.dtd">
<svg version="1.0" xmlns="http://www.w3.org/2000/svg"
 width="1024.000000pt" height="1024.000000pt" viewBox="0 0 1024.000000 1024.000000"
 preserveAspectRatio="xMidYMid meet">

<g transform="translate(0.000000,1024.000000) scale(0.100000,-0.100000)"
fill="#000000" stroke="none">
<path d="M5055 9143 c-9 -32 -25 -85 -35 -118 -37 -120 -89 -302 -115 -405
-15 -58 -33 -125 -40 -150 -8 -25 -30 -99 -50 -165 -34 -112 -147 -365 -163
-365 -5 0 -92 67 -194 149 -103 82 -215 166 -250 187 -35 21 -123 78 -197 126
-73 48 -138 88 -143 88 -5 0 -1 -15 10 -32 30 -49 107 -242 131 -328 33 -123
67 -460 45 -460 -6 0 -189 106 -314 182 -41 25 -138 82 -215 126 -77 45 -169
101 -204 126 -36 25 -67 44 -70 41 -2 -3 5 -22 16 -43 36 -64 112 -316 132
-434 27 -159 44 -298 37 -305 -3 -3 -40 21 -83 54 -161 122 -266 311 -303 545
-16 97 -8 345 13 443 15 67 76 248 111 328 9 20 13 37 9 37 -12 0 -240 -339
-306 -454 -102 -179 -152 -338 -186 -589 -16 -115 -14 -335 4 -420 22 -109 98
-328 128 -373 15 -21 23 -40 18 -42 -5 -2 -34 1 -63 7 -360 68 -503 94 -609
111 -135 21 -325 61 -374 80 -37 14 -35 13 45 -42 275 -188 595 -478 733 -663
80 -107 153 -245 197 -375 18 -52 39 -107 47 -122 7 -15 13 -29 13 -32 0 -24
-238 -91 -500 -140 -208 -39 -463 -96 -590 -131 -47 -14 -103 -29 -125 -34
-36 -9 -33 -9 25 -5 36 3 146 9 245 14 295 15 627 62 955 134 350 77 338 78
406 -32 27 -42 77 -105 111 -140 35 -34 63 -65 63 -68 0 -3 -26 -3 -57 0 -123
13 -283 18 -283 9 0 -5 13 -14 30 -20 16 -6 33 -20 36 -30 4 -10 13 -25 20
-33 20 -25 48 -220 30 -220 -2 0 -23 7 -47 16 -274 99 -1032 282 -1364 329
-66 9 -147 20 -180 25 -47 8 -188 1 -245 -11 -3 0 38 -9 90 -18 114 -21 392
-98 665 -186 110 -35 253 -79 317 -99 117 -36 280 -106 292 -124 3 -5 -57 -51
-135 -102 -145 -95 -292 -210 -367 -286 l-44 -44 97 35 c54 20 124 51 157 70
32 19 61 35 63 35 2 0 50 26 107 58 204 116 274 150 333 162 33 7 98 24 144
37 46 13 86 22 88 20 11 -11 -19 -41 -129 -127 -70 -56 -144 -124 -177 -165
-73 -89 -145 -129 -235 -131 -34 -1 -69 3 -78 8 -19 9 -159 -40 -165 -59 -2
-5 32 -22 74 -37 43 -15 89 -33 103 -41 l25 -13 -26 -10 c-14 -6 -46 -13 -70
-16 -24 -3 -114 -15 -199 -26 -302 -40 -376 -51 -430 -67 -75 -21 -222 -79
-290 -114 l-55 -29 50 5 c28 3 138 17 245 30 194 24 640 58 640 48 0 -2 -19
-33 -43 -70 -24 -38 -78 -133 -122 -212 -43 -79 -93 -164 -112 -188 l-33 -44
-5 -437 c-6 -576 15 -911 75 -1157 16 -66 42 -181 59 -255 16 -74 38 -159 48
-187 l18 -52 0 232 c0 196 4 253 23 367 33 192 37 204 82 224 21 9 65 48 101
88 160 181 347 324 519 395 52 22 112 48 132 56 l37 17 -5 -128 c-13 -331 -42
-550 -99 -757 -14 -50 -39 -142 -55 -205 -25 -101 -78 -234 -127 -324 -21 -39
-7 -30 98 61 46 39 113 95 149 123 36 28 139 118 230 199 91 81 201 178 245
216 44 37 108 95 142 128 l62 60 92 -82 c52 -45 136 -114 189 -154 52 -39 120
-89 150 -112 30 -23 76 -52 102 -64 31 -15 85 -62 159 -139 141 -146 257 -278
274 -313 14 -25 56 -161 150 -484 75 -255 88 -295 94 -295 4 0 12 21 19 47 7
27 39 131 71 233 67 213 122 390 145 471 14 50 32 73 162 215 207 224 288 304
311 304 33 0 246 152 417 299 l87 74 92 -90 c51 -50 112 -108 137 -129 25 -21
86 -77 135 -125 120 -115 167 -156 250 -219 91 -69 178 -142 238 -199 26 -25
47 -39 47 -32 0 7 -20 75 -44 150 -47 144 -99 350 -147 591 -25 121 -31 184
-39 380 -5 129 -14 253 -19 275 -5 22 -8 41 -7 43 2 2 44 -19 92 -46 331 -185
463 -288 656 -510 28 -33 48 -49 53 -42 4 6 10 44 14 85 7 76 15 96 30 79 9
-8 47 -260 72 -474 7 -59 9 -174 6 -305 -7 -255 -1 -250 73 63 117 499 130
630 130 1341 l0 457 -28 45 c-16 24 -52 89 -81 144 -30 54 -89 156 -132 225
l-78 125 57 3 c31 2 134 -3 227 -12 94 -8 217 -18 274 -21 56 -3 126 -10 155
-15 28 -5 76 -11 106 -14 46 -5 51 -4 30 6 -14 6 -59 28 -102 49 -144 71 -267
106 -438 124 -85 8 -184 20 -220 25 -36 6 -103 15 -150 21 -47 6 -87 13 -89
15 -7 7 11 22 93 73 l77 49 -43 16 c-24 8 -86 20 -138 26 -124 15 -176 41
-275 135 -44 42 -109 97 -145 123 -91 64 -174 132 -162 132 6 0 41 -7 79 -16
40 -9 91 -14 123 -11 82 7 135 -12 261 -92 195 -124 380 -232 477 -277 51 -24
96 -44 98 -44 3 0 -7 16 -22 36 -36 47 -214 200 -290 249 -178 115 -252 165
-262 178 -10 11 3 20 71 50 245 108 802 286 1147 365 l125 29 -59 8 c-169 22
-509 -29 -931 -139 -93 -24 -242 -63 -330 -86 -88 -22 -182 -48 -210 -56 -27
-8 -88 -23 -135 -34 -47 -10 -116 -26 -153 -35 -38 -9 -71 -14 -74 -11 -21 20
185 252 248 280 32 14 27 14 -91 14 -69 0 -170 -3 -225 -7 -55 -4 -101 -6
-103 -5 -2 1 25 37 59 80 88 111 190 211 225 220 31 8 130 -10 329 -58 148
-36 291 -60 550 -92 184 -23 491 -47 575 -45 l35 1 -30 8 c-16 4 -70 20 -120
34 -82 25 -235 58 -455 101 -139 26 -287 64 -422 107 -148 46 -141 34 -103
176 59 220 193 422 445 671 127 126 346 309 472 397 31 21 55 40 53 42 -2 2
-27 -4 -57 -13 -91 -28 -162 -44 -198 -45 -31 0 -199 -27 -615 -100 -60 -11
-122 -24 -137 -29 -34 -12 -34 -9 -4 43 39 67 113 265 131 351 61 289 2 639
-163 972 -56 114 -217 355 -287 429 l-46 49 25 -51 c34 -71 83 -240 103 -354
10 -58 16 -153 16 -245 0 -125 -4 -164 -23 -235 -28 -105 -94 -248 -147 -317
-40 -53 -129 -130 -139 -121 -8 9 -24 176 -24 263 0 115 24 257 60 355 43 118
44 120 31 120 -23 0 -147 -82 -456 -303 -99 -71 -156 -104 -242 -141 -97 -41
-88 -59 -73 144 18 235 55 393 130 546 21 43 37 81 35 83 -5 4 -254 -158 -370
-241 -44 -31 -134 -104 -200 -163 -118 -104 -192 -162 -199 -154 -1 2 -22 42
-46 89 -92 181 -183 456 -295 894 -39 154 -76 281 -83 284 -6 2 -18 -21 -27
-55z m49 -390 c49 -262 119 -494 221 -727 55 -126 67 -164 55 -171 -10 -6
-104 65 -148 114 -42 45 -124 167 -142 210 l-13 32 -23 -45 c-31 -61 -90 -135
-182 -228 -86 -88 -112 -100 -86 -40 106 242 206 564 270 870 9 45 20 82 24
82 3 0 14 -44 24 -97z m-2168 -586 c-17 -275 52 -518 203 -716 83 -107 102
-126 224 -220 59 -45 107 -84 107 -86 0 -1 -7 -19 -15 -38 l-15 -36 -42 18
c-24 10 -72 37 -108 60 -35 23 -66 38 -68 32 -4 -13 49 -128 90 -193 47 -72
54 -96 33 -104 -12 -5 -46 24 -125 107 l-109 114 43 -105 c23 -58 54 -126 69
-152 14 -26 29 -63 33 -82 7 -43 -3 -126 -17 -126 -5 0 -9 5 -9 12 0 6 -44 70
-98 142 -190 254 -262 381 -304 538 -42 158 -24 485 43 755 30 123 54 193 65
193 4 0 4 -51 0 -113z m1348 -82 c44 -38 132 -119 196 -178 63 -60 128 -116
143 -124 16 -8 25 -18 21 -23 -5 -5 -55 -29 -111 -54 l-103 -45 -25 32 c-14
18 -23 25 -20 16 5 -13 -2 -20 -28 -28 -19 -7 -65 -32 -102 -57 l-67 -45 8 48
c27 147 -18 397 -112 618 -8 19 8 6 200 -160z m1780 138 c-56 -131 -102 -336
-110 -495 -4 -65 -10 -118 -14 -118 -7 0 -128 52 -161 70 -11 6 -22 3 -32 -7
-17 -17 -14 -18 -201 66 l-39 17 54 44 c83 68 142 122 284 260 138 134 213
200 227 200 5 0 1 -17 -8 -37z m1221 -123 c65 -189 75 -243 82 -426 8 -228
-17 -375 -87 -515 -38 -75 -194 -302 -289 -418 l-76 -94 -3 58 c-4 74 12 119
92 259 36 63 66 123 66 133 0 12 -27 -10 -83 -68 -45 -47 -97 -94 -115 -103
-32 -16 -32 -16 -32 7 0 13 10 32 21 43 23 20 109 188 109 212 0 19 -19 11
-100 -43 -37 -25 -69 -45 -71 -45 -2 0 -2 28 1 63 l5 63 97 87 c145 131 212
228 271 394 45 124 59 230 56 399 -2 84 -1 147 3 140 4 -6 27 -72 53 -146z
m-2170 -182 c41 -71 237 -240 350 -303 177 -100 548 -224 667 -225 22 0 42 70
33 116 -6 33 -5 34 67 70 106 54 200 121 311 223 54 50 116 105 138 121 l39
31 -14 -33 c-40 -95 -50 -186 -49 -458 1 -308 8 -381 70 -688 45 -223 46 -231
50 -462 6 -286 -10 -445 -59 -600 -26 -82 -38 -96 -38 -43 0 76 -30 215 -66
302 -79 191 -223 419 -348 550 -108 112 -341 283 -484 355 -148 75 -485 196
-500 181 -6 -5 -54 -232 -113 -525 -46 -233 -97 -426 -99 -375 -2 81 -45 314
-127 690 -14 66 -31 144 -36 173 -6 28 -16 52 -22 52 -26 0 -135 -40 -220 -80
-145 -69 -222 -126 -306 -230 -205 -256 -154 -567 126 -767 127 -91 242 -142
480 -213 77 -23 199 -63 270 -90 187 -69 345 -120 550 -180 99 -28 257 -76
350 -106 319 -100 445 -119 605 -91 47 8 86 14 88 13 6 -6 -119 -86 -187 -120
-81 -41 -203 -76 -265 -76 -25 0 -36 -4 -31 -9 13 -12 123 -38 203 -47 58 -6
65 -10 103 -53 48 -53 171 -299 192 -381 12 -47 12 -97 1 -328 -13 -280 -40
-511 -76 -665 -11 -48 -22 -86 -24 -84 -2 2 -13 52 -25 112 -11 60 -23 114
-26 119 -11 17 -33 -56 -33 -108 0 -93 -47 -298 -104 -456 -23 -62 -139 -280
-188 -354 -89 -132 -270 -366 -283 -366 -7 0 10 41 43 107 84 165 143 365 188
633 19 113 36 243 39 290 l5 85 -15 -49 c-20 -60 -108 -204 -184 -299 -73 -91
-148 -160 -336 -310 -206 -164 -276 -227 -328 -296 -83 -111 -175 -315 -226
-501 -23 -84 -106 -487 -116 -565 -9 -64 -64 -328 -70 -334 -11 -11 -18 15
-36 141 -22 159 -109 602 -146 743 -27 102 -90 270 -136 362 -84 164 -222 308
-497 518 -119 91 -267 255 -230 255 6 0 39 -15 73 -32 57 -30 167 -54 167 -37
0 4 -17 18 -37 30 -21 13 -78 61 -127 106 -48 46 -92 83 -97 83 -6 0 -18 20
-29 45 -18 43 -36 64 -23 28 3 -10 3 -15 -1 -12 -13 12 -19 302 -7 378 17 110
64 244 111 316 23 36 44 65 45 65 2 0 8 -39 15 -87 30 -216 150 -405 345 -544
76 -54 215 -135 265 -155 25 -9 50 -21 56 -26 8 -5 13 -54 16 -126 3 -115 4
-119 47 -210 68 -141 89 -144 56 -7 -34 140 -16 348 68 775 25 124 55 287 67
363 13 76 26 134 30 130 3 -4 19 -87 34 -183 15 -96 39 -222 52 -280 71 -297
96 -445 101 -590 5 -128 3 -155 -16 -229 -12 -46 -20 -85 -18 -88 6 -5 48 52
79 107 43 74 60 139 67 244 l6 98 123 53 c67 29 141 65 164 81 70 48 153 138
196 210 63 109 77 161 77 294 -1 113 -1 116 -38 185 -67 126 -167 220 -316
295 -79 39 -267 108 -516 188 -104 34 -266 86 -360 116 -657 211 -783 270
-984 462 -130 123 -218 244 -295 404 -69 144 -86 203 -111 373 -23 154 -18
168 29 78 37 -71 40 -74 110 -106 39 -19 93 -37 120 -41 l49 -7 -98 94 c-61
58 -120 127 -156 182 l-58 88 14 42 c108 339 181 472 355 648 93 94 257 210
399 283 60 31 196 90 302 132 317 124 418 185 604 366 44 43 85 78 90 78 6 0
19 -14 30 -32z m-1629 -19 c10 -12 84 -64 164 -117 80 -52 180 -121 224 -154
43 -33 103 -71 132 -85 30 -13 54 -26 54 -28 0 -1 -27 -13 -61 -25 -33 -13
-87 -40 -119 -61 l-59 -38 -21 27 c-19 24 -20 25 -15 5 5 -17 -2 -29 -27 -50
-18 -15 -61 -55 -95 -87 l-63 -59 0 66 c0 36 -5 101 -11 144 -10 80 -72 332
-89 363 -21 40 -49 120 -41 120 4 0 16 -10 27 -21z m4641 -912 c-210 -120
-345 -217 -475 -341 -114 -109 -296 -343 -364 -469 -56 -102 -142 -211 -215
-271 -54 -45 -131 -91 -138 -84 -2 2 3 27 10 56 41 157 200 400 396 606 73 77
96 107 79 101 -106 -32 -223 -112 -355 -245 -55 -55 -103 -100 -107 -100 -5 0
-8 28 -8 61 0 34 -5 90 -12 125 -11 61 -10 64 14 96 14 18 56 64 92 101 84 86
151 118 330 158 222 50 491 129 711 210 68 24 88 23 42 -4z m-5980 -32 c65
-20 156 -49 203 -65 144 -49 401 -120 475 -132 88 -13 139 -31 197 -67 56 -35
201 -199 191 -215 -4 -6 -10 -65 -13 -131 l-5 -120 -100 104 c-112 116 -192
177 -289 221 -36 17 -67 30 -70 30 -2 0 23 -28 57 -62 131 -136 220 -258 306
-419 51 -95 114 -249 106 -257 -13 -13 -60 17 -145 91 -85 75 -105 99 -185
228 -105 169 -140 219 -239 336 -195 232 -298 316 -551 453 -94 51 -94 51 62
5z m2647 -265 c4 -30 20 -107 36 -170 16 -63 38 -165 49 -226 12 -60 32 -148
46 -195 30 -101 31 -119 7 -119 -23 0 -245 76 -292 100 -51 26 -127 112 -157
177 -39 86 -37 171 6 256 42 82 128 169 218 219 76 42 77 42 87 -42z m716 39
c173 -56 326 -133 427 -215 28 -23 82 -62 120 -86 70 -46 172 -152 238 -248
52 -77 160 -303 179 -375 17 -66 36 -208 36 -268 l0 -39 -37 5 c-83 12 -276
60 -408 102 -77 24 -216 65 -310 90 -93 26 -210 62 -260 80 -49 19 -124 46
-165 60 -112 39 -105 28 -90 137 20 146 93 514 130 654 11 43 20 90 20 106 0
16 5 28 13 28 6 0 55 -14 107 -31z m-2100 -1744 c58 -187 90 -268 162 -405
108 -204 225 -353 342 -435 l29 -21 -26 -77 c-15 -42 -31 -120 -37 -174 -6
-54 -18 -162 -27 -241 -14 -121 -15 -161 -5 -257 28 -263 127 -637 216 -814
21 -40 35 -75 33 -77 -10 -10 -242 293 -315 412 -135 219 -198 383 -257 669
-39 195 -43 208 -55 180 -7 -16 -17 -64 -24 -105 -6 -41 -14 -70 -18 -65 -22
38 -71 337 -89 535 -18 203 -1 1049 21 1023 3 -4 26 -71 50 -148z m265 35 c99
-60 222 -109 486 -195 112 -37 305 -102 429 -146 124 -43 258 -87 298 -99 75
-22 80 -27 62 -76 -6 -15 -22 -96 -36 -178 -26 -157 -66 -343 -109 -506 -13
-52 -25 -105 -25 -117 0 -33 -24 -29 -112 20 -278 152 -411 359 -435 676 -4
64 -2 85 17 131 l22 55 -69 -65 c-37 -36 -107 -101 -156 -144 -80 -72 -90 -78
-111 -68 -31 14 -147 189 -198 300 -116 250 -188 426 -188 463 0 23 1 23 125
-51z m-498 -141 c-8 -19 -44 -78 -81 -132 -36 -54 -66 -102 -66 -108 0 -5 20
4 44 21 45 31 80 38 91 20 4 -6 -54 -69 -127 -140 -124 -119 -191 -199 -284
-338 -31 -47 -33 -52 -12 -41 13 7 63 45 113 84 91 73 179 135 190 135 3 0 23
11 45 25 l40 25 2 -42 1 -43 4 40 c3 22 8 43 12 47 4 5 5 -8 3 -27 -3 -24 0
-35 8 -35 9 0 7 -7 -5 -20 -10 -11 -22 -17 -27 -14 -4 3 -7 2 -6 -3 2 -5 -51
-63 -118 -129 -130 -128 -236 -274 -367 -504 -175 -310 -310 -741 -337 -1075
-22 -279 -23 -281 -30 -255 -4 14 -13 122 -20 240 -10 172 -11 280 -1 540 6
179 11 394 11 478 0 150 0 153 26 180 24 26 121 185 199 327 100 181 242 368
426 559 203 211 308 283 266 185z m3928 -44 c175 -141 375 -355 481 -515 65
-97 170 -273 227 -380 25 -47 61 -103 81 -126 l35 -41 8 -319 c14 -568 1
-1097 -27 -1079 -4 2 -10 78 -14 167 -3 90 -12 197 -20 238 -19 106 -90 365
-134 489 -43 124 -196 440 -272 561 -93 151 -230 308 -382 437 -87 73 -88 75
-88 119 0 42 1 45 23 38 44 -14 123 -57 187 -104 83 -60 144 -99 189 -117 l34
-15 -18 29 c-48 75 -180 225 -291 331 -120 114 -141 142 -109 142 19 0 91 -36
100 -49 3 -6 20 -20 37 -33 l32 -22 -34 49 c-18 28 -57 82 -85 120 -53 72 -77
112 -90 153 -6 22 -5 23 17 12 12 -7 64 -45 113 -85z m-1764 -398 c199 -80
326 -173 381 -281 30 -59 36 -160 12 -228 -27 -76 -114 -159 -238 -225 -54
-29 -101 -53 -104 -53 -4 0 -16 46 -26 103 -11 56 -28 131 -38 167 -17 59 -81
410 -95 519 -5 36 -3 43 8 38 8 -3 53 -21 100 -40z m-2216 -589 c-31 -106 -58
-202 -62 -213 -4 -14 1 -11 21 10 20 23 25 25 20 10 -5 -17 -4 -17 8 2 9 16
17 20 28 13 8 -5 11 -12 7 -16 -4 -4 -2 -13 4 -21 9 -10 8 -13 -1 -13 -8 0
-10 -3 -7 -6 3 -4 2 -15 -4 -25 -14 -27 -7 -24 41 16 47 39 65 43 79 17 8 -16
-5 -29 -92 -90 -121 -85 -219 -170 -211 -183 4 -6 10 -6 17 -1 26 21 309 163
315 158 2 -3 -1 -13 -9 -23 -12 -15 -12 -16 1 -9 8 4 7 1 -3 -7 -18 -15 -18
-15 2 -22 17 -5 18 -10 9 -36 -12 -36 -79 -84 -288 -208 -86 -51 -171 -106
-191 -124 -19 -18 -58 -51 -86 -75 -28 -23 -77 -79 -109 -123 -32 -44 -60 -76
-62 -70 -17 50 173 501 335 796 161 292 285 486 291 453 2 -9 -22 -103 -53
-210z m3959 80 c90 -120 254 -384 316 -508 97 -194 278 -660 256 -660 -2 0
-29 33 -60 74 -31 41 -96 111 -145 156 -90 83 -296 230 -386 277 -93 48 -175
116 -175 146 0 14 5 17 16 13 14 -5 15 -4 4 9 -10 12 -9 16 5 21 9 4 20 2 24
-4 4 -7 11 -8 21 -1 13 8 12 11 -4 24 -10 8 -23 12 -27 9 -5 -3 -9 0 -9 5 0
15 23 14 38 -1 7 -7 12 -8 12 -4 0 10 84 -39 131 -76 37 -30 144 -57 136 -34
-2 6 -8 11 -13 11 -5 0 -22 12 -39 27 -39 35 -129 98 -262 185 -15 10 -13 11
17 6 19 -3 37 -9 40 -12 3 -3 16 -6 30 -6 26 0 27 5 16 55 -21 89 -22 89 41
25 32 -33 64 -69 70 -80 7 -11 3 5 -8 35 -55 143 -80 216 -103 298 -14 49 -28
96 -32 105 -14 37 9 12 90 -95z m-4102 40 c-59 -84 -201 -242 -210 -233 -12
11 47 112 99 170 54 58 128 119 137 111 2 -3 -10 -24 -26 -48z m4268 -25 c63
-58 157 -179 147 -189 -3 -3 -13 -2 -22 3 -17 10 -170 183 -206 235 -22 30
-22 30 -1 19 12 -6 49 -37 82 -68z m-3796 -818 c19 -55 44 -138 56 -185 32
-125 59 -162 90 -125 21 25 43 19 37 -11 -4 -24 33 -105 86 -185 17 -26 17
-27 -19 -70 -34 -42 -584 -599 -591 -599 -5 0 35 97 66 157 74 147 159 478
181 703 6 63 20 179 31 257 10 79 19 148 19 155 0 22 10 1 44 -97z m3316 87
c0 -4 7 -39 15 -77 8 -39 22 -171 30 -295 12 -191 20 -246 49 -365 38 -154 78
-272 135 -403 21 -48 41 -100 45 -115 6 -25 1 -22 -40 25 -25 29 -90 96 -143
148 -53 52 -121 122 -151 155 -30 33 -105 113 -167 178 l-113 118 24 37 c13
20 40 62 60 92 30 45 36 61 31 88 -5 25 -2 32 10 32 8 0 15 -4 15 -10 0 -5 9
-14 19 -19 23 -13 31 7 112 257 29 89 57 162 61 162 4 0 8 -3 8 -8z m-752
-399 c-86 -234 -154 -355 -274 -483 -53 -58 -148 -172 -211 -253 -64 -82 -117
-147 -119 -145 -2 2 12 60 31 128 78 287 143 425 257 544 64 67 68 69 86 53
10 -9 22 -14 26 -10 4 4 4 -1 0 -11 -5 -14 -9 -15 -16 -4 -7 10 -8 8 -4 -5 4
-11 -10 -43 -36 -85 -22 -37 -50 -83 -60 -102 l-20 -35 21 25 c20 24 168 243
206 304 14 23 19 26 27 15 8 -11 9 -10 4 4 -4 12 9 33 41 67 26 28 50 50 55
50 4 0 -2 -26 -14 -57z m-1740 -122 c18 -32 51 -85 75 -117 24 -33 64 -92 90
-131 26 -40 50 -73 53 -73 6 0 -44 98 -66 130 -10 14 -25 42 -34 64 -13 31
-13 36 -2 27 11 -10 16 -8 21 8 9 28 15 26 50 -12 115 -121 193 -293 259 -569
24 -100 20 -109 -21 -48 -46 69 -239 303 -288 350 -102 97 -197 272 -249 457
l-25 88 53 -57 c29 -32 67 -84 84 -117z"/>
<path d="M5176 7347 c3 -10 9 -15 12 -12 3 3 0 11 -7 18 -10 9 -11 8 -5 -6z"/>
<path d="M5191 7315 c0 -5 11 -30 24 -55 13 -25 24 -40 24 -35 0 6 -11 30 -24
55 -13 25 -24 41 -24 35z"/>
<path d="M3572 5803 c51 -117 141 -244 355 -498 111 -132 235 -195 396 -201
54 -1 111 -6 127 -9 49 -11 43 13 -15 55 -31 23 -79 71 -108 108 -85 107 -117
135 -238 197 -166 87 -362 221 -444 304 -38 39 -73 71 -77 71 -4 0 -2 -12 4
-27z m641 -589 c34 -25 80 -57 104 -71 66 -38 43 -41 -31 -4 -55 29 -164 121
-142 121 5 0 36 -21 69 -46z"/>
<path d="M6618 4194 c-12 -11 -10 -79 3 -111 6 -15 13 -23 15 -18 6 18 -11
137 -18 129z"/>
<path d="M3980 3551 c0 -6 4 -13 10 -16 6 -3 7 1 4 9 -7 18 -14 21 -14 7z"/>
<path d="M4006 3491 c-8 -12 4 -41 16 -41 6 0 5 6 -2 15 -6 8 -9 19 -5 25 3 5
4 10 1 10 -3 0 -7 -4 -10 -9z"/>
<path d="M3815 4751 c-10 -31 41 -173 78 -216 30 -34 36 -37 68 -31 24 4 58
27 109 74 89 82 118 102 150 103 23 0 23 1 5 8 -31 13 -174 48 -230 56 -16 3
-54 10 -84 15 -76 14 -89 13 -96 -9z m158 -44 c18 -8 39 -22 47 -32 13 -16 11
-20 -18 -46 -18 -16 -42 -29 -54 -29 -52 0 -92 85 -50 109 23 14 37 13 75 -2z"/>
<path d="M6535 2729 c-4 -6 -4 -13 -1 -16 3 -4 6 -1 6 6 0 7 5 9 12 5 7 -4 8
-3 4 4 -9 15 -13 15 -21 1z"/>
<path d="M6570 2705 c0 -5 5 -17 10 -25 5 -8 10 -10 10 -5 0 6 -5 17 -10 25
-5 8 -10 11 -10 5z"/>
<path d="M6514 2678 c-4 -7 -4 -10 1 -6 4 4 14 3 22 -3 10 -9 13 -8 13 5 0 19
-26 22 -36 4z"/>
<path d="M7002 8225 c0 -16 2 -22 5 -12 2 9 2 23 0 30 -3 6 -5 -1 -5 -18z"/>
<path d="M3171 7955 c0 -17 4 -39 8 -50 7 -17 9 -14 13 15 4 23 1 40 -8 50
-12 12 -14 10 -13 -15z"/>
<path d="M3251 7813 c-1 -12 -8 -26 -17 -31 -13 -8 -12 -16 10 -73 15 -35 37
-77 51 -94 l25 -30 -6 35 c-8 45 -39 157 -52 190 -10 24 -11 24 -11 3z"/>
<path d="M7305 4835 c22 -14 45 -25 50 -25 6 1 -8 12 -30 25 -22 14 -44 25
-50 25 -5 -1 8 -12 30 -25z"/>
</g>
</svg>
